<mxfile host="app.diagrams.net" modified="2023-09-05T06:32:17.398Z" agent="Mozilla/5.0 (Windows NT 10.0; Win64; x64) AppleWebKit/537.36 (KHTML, like Gecko) Chrome/116.0.0.0 Safari/537.36" etag="SxXERWkEXmCsyJBTUkNf" version="21.7.1" type="google">
  <diagram id="SxQII6kYOsgFY-RKbzaT" name="Flipkart System 1.2">
    <mxGraphModel grid="1" page="1" gridSize="10" guides="1" tooltips="1" connect="1" arrows="1" fold="1" pageScale="1" pageWidth="827" pageHeight="1169" math="0" shadow="0">
      <root>
        <mxCell id="0" />
        <mxCell id="1" parent="0" />
        <mxCell id="6JddjFFhp6mcOWGYSpWZ-1" style="edgeStyle=orthogonalEdgeStyle;rounded=0;orthogonalLoop=1;jettySize=auto;html=1;exitX=0;exitY=1;exitDx=0;exitDy=0;entryX=0;entryY=0.5;entryDx=0;entryDy=0;" edge="1" parent="1" source="6JddjFFhp6mcOWGYSpWZ-2" target="6JddjFFhp6mcOWGYSpWZ-47">
          <mxGeometry relative="1" as="geometry" />
        </mxCell>
        <mxCell id="6JddjFFhp6mcOWGYSpWZ-2" value="Registered Customers" style="rounded=1;whiteSpace=wrap;html=1;" vertex="1" parent="1">
          <mxGeometry y="80" width="200" height="120" as="geometry" />
        </mxCell>
        <mxCell id="6JddjFFhp6mcOWGYSpWZ-3" style="edgeStyle=orthogonalEdgeStyle;rounded=0;orthogonalLoop=1;jettySize=auto;html=1;entryX=-0.007;entryY=0.64;entryDx=0;entryDy=0;entryPerimeter=0;" edge="1" parent="1" source="6JddjFFhp6mcOWGYSpWZ-4" target="6JddjFFhp6mcOWGYSpWZ-19">
          <mxGeometry relative="1" as="geometry" />
        </mxCell>
        <mxCell id="HjE1Yumf4lTmEGn1SdgP-1" style="edgeStyle=orthogonalEdgeStyle;rounded=0;orthogonalLoop=1;jettySize=auto;html=1;exitX=0;exitY=1;exitDx=0;exitDy=0;entryX=1.003;entryY=0.61;entryDx=0;entryDy=0;entryPerimeter=0;" edge="1" parent="1" source="6JddjFFhp6mcOWGYSpWZ-4" target="6JddjFFhp6mcOWGYSpWZ-2">
          <mxGeometry relative="1" as="geometry" />
        </mxCell>
        <mxCell id="6JddjFFhp6mcOWGYSpWZ-4" value="Login" style="ellipse;whiteSpace=wrap;html=1;aspect=fixed;" vertex="1" parent="1">
          <mxGeometry x="340" y="50" width="120" height="120" as="geometry" />
        </mxCell>
        <mxCell id="6JddjFFhp6mcOWGYSpWZ-5" style="edgeStyle=orthogonalEdgeStyle;rounded=0;orthogonalLoop=1;jettySize=auto;html=1;entryX=0;entryY=0.5;entryDx=0;entryDy=0;" edge="1" parent="1" source="6JddjFFhp6mcOWGYSpWZ-6" target="6JddjFFhp6mcOWGYSpWZ-21">
          <mxGeometry relative="1" as="geometry" />
        </mxCell>
        <mxCell id="6JddjFFhp6mcOWGYSpWZ-6" value="Website" style="ellipse;whiteSpace=wrap;html=1;aspect=fixed;" vertex="1" parent="1">
          <mxGeometry x="340" y="190" width="120" height="120" as="geometry" />
        </mxCell>
        <mxCell id="6JddjFFhp6mcOWGYSpWZ-7" style="edgeStyle=orthogonalEdgeStyle;rounded=0;orthogonalLoop=1;jettySize=auto;html=1;entryX=0.75;entryY=1;entryDx=0;entryDy=0;" edge="1" parent="1" source="6JddjFFhp6mcOWGYSpWZ-9" target="6JddjFFhp6mcOWGYSpWZ-2">
          <mxGeometry relative="1" as="geometry" />
        </mxCell>
        <mxCell id="6JddjFFhp6mcOWGYSpWZ-8" style="edgeStyle=orthogonalEdgeStyle;rounded=0;orthogonalLoop=1;jettySize=auto;html=1;entryX=0;entryY=0.5;entryDx=0;entryDy=0;" edge="1" parent="1" source="6JddjFFhp6mcOWGYSpWZ-9" target="6JddjFFhp6mcOWGYSpWZ-23">
          <mxGeometry relative="1" as="geometry" />
        </mxCell>
        <mxCell id="6JddjFFhp6mcOWGYSpWZ-9" value="Category&amp;nbsp;" style="ellipse;whiteSpace=wrap;html=1;aspect=fixed;" vertex="1" parent="1">
          <mxGeometry x="340" y="340" width="120" height="120" as="geometry" />
        </mxCell>
        <mxCell id="6JddjFFhp6mcOWGYSpWZ-10" style="edgeStyle=orthogonalEdgeStyle;rounded=0;orthogonalLoop=1;jettySize=auto;html=1;" edge="1" parent="1" source="6JddjFFhp6mcOWGYSpWZ-11">
          <mxGeometry relative="1" as="geometry">
            <mxPoint x="120" y="200" as="targetPoint" />
          </mxGeometry>
        </mxCell>
        <mxCell id="6JddjFFhp6mcOWGYSpWZ-11" value="Product" style="ellipse;whiteSpace=wrap;html=1;aspect=fixed;" vertex="1" parent="1">
          <mxGeometry x="340" y="480" width="120" height="120" as="geometry" />
        </mxCell>
        <mxCell id="6JddjFFhp6mcOWGYSpWZ-12" style="edgeStyle=orthogonalEdgeStyle;rounded=0;orthogonalLoop=1;jettySize=auto;html=1;entryX=0.5;entryY=1;entryDx=0;entryDy=0;" edge="1" parent="1" source="6JddjFFhp6mcOWGYSpWZ-13" target="6JddjFFhp6mcOWGYSpWZ-2">
          <mxGeometry relative="1" as="geometry" />
        </mxCell>
        <mxCell id="6JddjFFhp6mcOWGYSpWZ-13" value="Cart" style="ellipse;whiteSpace=wrap;html=1;aspect=fixed;" vertex="1" parent="1">
          <mxGeometry x="340" y="630" width="120" height="120" as="geometry" />
        </mxCell>
        <mxCell id="6JddjFFhp6mcOWGYSpWZ-14" style="edgeStyle=orthogonalEdgeStyle;rounded=0;orthogonalLoop=1;jettySize=auto;html=1;entryX=0;entryY=0.5;entryDx=0;entryDy=0;" edge="1" parent="1" source="6JddjFFhp6mcOWGYSpWZ-16" target="6JddjFFhp6mcOWGYSpWZ-28">
          <mxGeometry relative="1" as="geometry" />
        </mxCell>
        <mxCell id="6JddjFFhp6mcOWGYSpWZ-15" style="edgeStyle=orthogonalEdgeStyle;rounded=0;orthogonalLoop=1;jettySize=auto;html=1;exitX=0;exitY=0;exitDx=0;exitDy=0;entryX=0.4;entryY=1;entryDx=0;entryDy=0;entryPerimeter=0;" edge="1" parent="1" source="6JddjFFhp6mcOWGYSpWZ-16" target="6JddjFFhp6mcOWGYSpWZ-2">
          <mxGeometry relative="1" as="geometry">
            <Array as="points">
              <mxPoint x="80" y="798" />
            </Array>
          </mxGeometry>
        </mxCell>
        <mxCell id="6JddjFFhp6mcOWGYSpWZ-16" value="Payment" style="ellipse;whiteSpace=wrap;html=1;aspect=fixed;" vertex="1" parent="1">
          <mxGeometry x="340" y="780" width="120" height="120" as="geometry" />
        </mxCell>
        <mxCell id="6JddjFFhp6mcOWGYSpWZ-17" value="" style="endArrow=classic;html=1;rounded=0;entryX=0;entryY=0.5;entryDx=0;entryDy=0;" edge="1" parent="1" target="6JddjFFhp6mcOWGYSpWZ-4">
          <mxGeometry width="50" height="50" relative="1" as="geometry">
            <mxPoint x="200" y="110" as="sourcePoint" />
            <mxPoint x="250" y="60" as="targetPoint" />
          </mxGeometry>
        </mxCell>
        <mxCell id="6JddjFFhp6mcOWGYSpWZ-18" style="edgeStyle=orthogonalEdgeStyle;rounded=0;orthogonalLoop=1;jettySize=auto;html=1;" edge="1" parent="1" source="6JddjFFhp6mcOWGYSpWZ-19">
          <mxGeometry relative="1" as="geometry">
            <mxPoint x="460" y="101" as="targetPoint" />
          </mxGeometry>
        </mxCell>
        <mxCell id="6JddjFFhp6mcOWGYSpWZ-19" value="Login Table" style="shape=process;whiteSpace=wrap;html=1;backgroundOutline=1;" vertex="1" parent="1">
          <mxGeometry x="670" y="70" width="120" height="60" as="geometry" />
        </mxCell>
        <mxCell id="6JddjFFhp6mcOWGYSpWZ-20" style="edgeStyle=orthogonalEdgeStyle;rounded=0;orthogonalLoop=1;jettySize=auto;html=1;exitX=0;exitY=0.25;exitDx=0;exitDy=0;entryX=1.003;entryY=0.38;entryDx=0;entryDy=0;entryPerimeter=0;" edge="1" parent="1" source="6JddjFFhp6mcOWGYSpWZ-21" target="6JddjFFhp6mcOWGYSpWZ-6">
          <mxGeometry relative="1" as="geometry" />
        </mxCell>
        <mxCell id="6JddjFFhp6mcOWGYSpWZ-21" value="Website table" style="shape=process;whiteSpace=wrap;html=1;backgroundOutline=1;" vertex="1" parent="1">
          <mxGeometry x="670" y="220" width="120" height="60" as="geometry" />
        </mxCell>
        <mxCell id="6JddjFFhp6mcOWGYSpWZ-22" style="edgeStyle=orthogonalEdgeStyle;rounded=0;orthogonalLoop=1;jettySize=auto;html=1;exitX=0;exitY=0.25;exitDx=0;exitDy=0;entryX=1;entryY=0.375;entryDx=0;entryDy=0;entryPerimeter=0;" edge="1" parent="1" source="6JddjFFhp6mcOWGYSpWZ-23" target="6JddjFFhp6mcOWGYSpWZ-9">
          <mxGeometry relative="1" as="geometry" />
        </mxCell>
        <mxCell id="6JddjFFhp6mcOWGYSpWZ-23" value="Category table" style="shape=process;whiteSpace=wrap;html=1;backgroundOutline=1;" vertex="1" parent="1">
          <mxGeometry x="670" y="370" width="120" height="60" as="geometry" />
        </mxCell>
        <mxCell id="6JddjFFhp6mcOWGYSpWZ-24" style="edgeStyle=orthogonalEdgeStyle;rounded=0;orthogonalLoop=1;jettySize=auto;html=1;" edge="1" parent="1" source="6JddjFFhp6mcOWGYSpWZ-25" target="6JddjFFhp6mcOWGYSpWZ-11">
          <mxGeometry relative="1" as="geometry" />
        </mxCell>
        <mxCell id="6JddjFFhp6mcOWGYSpWZ-25" value="Product table" style="shape=process;whiteSpace=wrap;html=1;backgroundOutline=1;" vertex="1" parent="1">
          <mxGeometry x="670" y="510" width="120" height="60" as="geometry" />
        </mxCell>
        <mxCell id="6JddjFFhp6mcOWGYSpWZ-26" style="edgeStyle=orthogonalEdgeStyle;rounded=0;orthogonalLoop=1;jettySize=auto;html=1;entryX=1;entryY=0.5;entryDx=0;entryDy=0;" edge="1" parent="1" source="6JddjFFhp6mcOWGYSpWZ-27" target="6JddjFFhp6mcOWGYSpWZ-13">
          <mxGeometry relative="1" as="geometry" />
        </mxCell>
        <mxCell id="6JddjFFhp6mcOWGYSpWZ-27" value="Cart table" style="shape=process;whiteSpace=wrap;html=1;backgroundOutline=1;" vertex="1" parent="1">
          <mxGeometry x="670" y="660" width="120" height="60" as="geometry" />
        </mxCell>
        <mxCell id="6JddjFFhp6mcOWGYSpWZ-28" value="Payment table" style="shape=process;whiteSpace=wrap;html=1;backgroundOutline=1;" vertex="1" parent="1">
          <mxGeometry x="670" y="810" width="120" height="60" as="geometry" />
        </mxCell>
        <mxCell id="6JddjFFhp6mcOWGYSpWZ-29" value="Login" style="text;html=1;align=center;verticalAlign=middle;resizable=0;points=[];autosize=1;strokeColor=none;fillColor=none;" vertex="1" parent="1">
          <mxGeometry x="530" y="110" width="50" height="30" as="geometry" />
        </mxCell>
        <mxCell id="6JddjFFhp6mcOWGYSpWZ-30" value="Response" style="text;html=1;align=center;verticalAlign=middle;resizable=0;points=[];autosize=1;strokeColor=none;fillColor=none;" vertex="1" parent="1">
          <mxGeometry x="520" y="68" width="80" height="30" as="geometry" />
        </mxCell>
        <mxCell id="6JddjFFhp6mcOWGYSpWZ-31" value="Login" style="text;html=1;align=center;verticalAlign=middle;resizable=0;points=[];autosize=1;strokeColor=none;fillColor=none;" vertex="1" parent="1">
          <mxGeometry x="245" y="78" width="50" height="30" as="geometry" />
        </mxCell>
        <mxCell id="6JddjFFhp6mcOWGYSpWZ-32" value="" style="endArrow=none;html=1;rounded=0;" edge="1" parent="1">
          <mxGeometry width="50" height="50" relative="1" as="geometry">
            <mxPoint x="340" y="240" as="sourcePoint" />
            <mxPoint x="180" y="240" as="targetPoint" />
          </mxGeometry>
        </mxCell>
        <mxCell id="6JddjFFhp6mcOWGYSpWZ-33" value="" style="endArrow=classic;html=1;rounded=0;" edge="1" parent="1">
          <mxGeometry width="50" height="50" relative="1" as="geometry">
            <mxPoint x="180" y="240" as="sourcePoint" />
            <mxPoint x="180" y="200" as="targetPoint" />
          </mxGeometry>
        </mxCell>
        <mxCell id="6JddjFFhp6mcOWGYSpWZ-34" value="" style="endArrow=none;html=1;rounded=0;" edge="1" parent="1">
          <mxGeometry width="50" height="50" relative="1" as="geometry">
            <mxPoint x="170" y="250" as="sourcePoint" />
            <mxPoint x="170" y="200" as="targetPoint" />
          </mxGeometry>
        </mxCell>
        <mxCell id="6JddjFFhp6mcOWGYSpWZ-35" value="" style="endArrow=classic;html=1;rounded=0;entryX=0;entryY=0.5;entryDx=0;entryDy=0;" edge="1" parent="1" target="6JddjFFhp6mcOWGYSpWZ-6">
          <mxGeometry width="50" height="50" relative="1" as="geometry">
            <mxPoint x="170" y="249.5" as="sourcePoint" />
            <mxPoint x="320" y="249.5" as="targetPoint" />
          </mxGeometry>
        </mxCell>
        <mxCell id="6JddjFFhp6mcOWGYSpWZ-36" value="" style="endArrow=none;html=1;rounded=0;" edge="1" parent="1">
          <mxGeometry width="50" height="50" relative="1" as="geometry">
            <mxPoint x="140" y="410" as="sourcePoint" />
            <mxPoint x="140" y="200" as="targetPoint" />
          </mxGeometry>
        </mxCell>
        <mxCell id="6JddjFFhp6mcOWGYSpWZ-37" value="" style="endArrow=classic;html=1;rounded=0;entryX=-0.023;entryY=0.577;entryDx=0;entryDy=0;entryPerimeter=0;" edge="1" parent="1" target="6JddjFFhp6mcOWGYSpWZ-9">
          <mxGeometry width="50" height="50" relative="1" as="geometry">
            <mxPoint x="140" y="410" as="sourcePoint" />
            <mxPoint x="190" y="360" as="targetPoint" />
            <Array as="points">
              <mxPoint x="160" y="410" />
            </Array>
          </mxGeometry>
        </mxCell>
        <mxCell id="6JddjFFhp6mcOWGYSpWZ-38" value="Response" style="text;html=1;align=center;verticalAlign=middle;resizable=0;points=[];autosize=1;strokeColor=none;fillColor=none;" vertex="1" parent="1">
          <mxGeometry x="505" y="358" width="80" height="30" as="geometry" />
        </mxCell>
        <mxCell id="6JddjFFhp6mcOWGYSpWZ-39" value="Response" style="text;html=1;align=center;verticalAlign=middle;resizable=0;points=[];autosize=1;strokeColor=none;fillColor=none;" vertex="1" parent="1">
          <mxGeometry x="520" y="208" width="80" height="30" as="geometry" />
        </mxCell>
        <mxCell id="6JddjFFhp6mcOWGYSpWZ-40" value="Request" style="text;html=1;align=center;verticalAlign=middle;resizable=0;points=[];autosize=1;strokeColor=none;fillColor=none;" vertex="1" parent="1">
          <mxGeometry x="525" y="258" width="70" height="30" as="geometry" />
        </mxCell>
        <mxCell id="6JddjFFhp6mcOWGYSpWZ-41" value="Request" style="text;html=1;align=center;verticalAlign=middle;resizable=0;points=[];autosize=1;strokeColor=none;fillColor=none;" vertex="1" parent="1">
          <mxGeometry x="515" y="398" width="70" height="30" as="geometry" />
        </mxCell>
        <mxCell id="6JddjFFhp6mcOWGYSpWZ-42" value="" style="endArrow=classic;html=1;rounded=0;" edge="1" parent="1">
          <mxGeometry width="50" height="50" relative="1" as="geometry">
            <mxPoint x="670" y="825" as="sourcePoint" />
            <mxPoint x="460" y="825" as="targetPoint" />
          </mxGeometry>
        </mxCell>
        <mxCell id="6JddjFFhp6mcOWGYSpWZ-43" value="" style="endArrow=none;html=1;rounded=0;" edge="1" parent="1">
          <mxGeometry width="50" height="50" relative="1" as="geometry">
            <mxPoint x="60" y="843.2000122070312" as="sourcePoint" />
            <mxPoint x="60" y="200" as="targetPoint" />
          </mxGeometry>
        </mxCell>
        <mxCell id="6JddjFFhp6mcOWGYSpWZ-44" value="" style="endArrow=classic;html=1;rounded=0;entryX=0;entryY=0.5;entryDx=0;entryDy=0;" edge="1" parent="1" target="6JddjFFhp6mcOWGYSpWZ-16">
          <mxGeometry width="50" height="50" relative="1" as="geometry">
            <mxPoint x="60" y="840" as="sourcePoint" />
            <mxPoint x="110" y="790" as="targetPoint" />
          </mxGeometry>
        </mxCell>
        <mxCell id="6JddjFFhp6mcOWGYSpWZ-45" style="edgeStyle=orthogonalEdgeStyle;rounded=0;orthogonalLoop=1;jettySize=auto;html=1;entryX=0;entryY=0.5;entryDx=0;entryDy=0;" edge="1" parent="1" source="6JddjFFhp6mcOWGYSpWZ-47" target="6JddjFFhp6mcOWGYSpWZ-49">
          <mxGeometry relative="1" as="geometry" />
        </mxCell>
        <mxCell id="6JddjFFhp6mcOWGYSpWZ-46" style="edgeStyle=orthogonalEdgeStyle;rounded=0;orthogonalLoop=1;jettySize=auto;html=1;exitX=0;exitY=0;exitDx=0;exitDy=0;entryX=0.095;entryY=0.963;entryDx=0;entryDy=0;entryPerimeter=0;" edge="1" parent="1" source="6JddjFFhp6mcOWGYSpWZ-47" target="6JddjFFhp6mcOWGYSpWZ-2">
          <mxGeometry relative="1" as="geometry" />
        </mxCell>
        <mxCell id="6JddjFFhp6mcOWGYSpWZ-47" value="Report&amp;nbsp;" style="ellipse;whiteSpace=wrap;html=1;aspect=fixed;" vertex="1" parent="1">
          <mxGeometry x="340" y="930" width="120" height="120" as="geometry" />
        </mxCell>
        <mxCell id="6JddjFFhp6mcOWGYSpWZ-48" style="edgeStyle=orthogonalEdgeStyle;rounded=0;orthogonalLoop=1;jettySize=auto;html=1;exitX=0;exitY=0.25;exitDx=0;exitDy=0;entryX=0.985;entryY=0.373;entryDx=0;entryDy=0;entryPerimeter=0;" edge="1" parent="1" source="6JddjFFhp6mcOWGYSpWZ-49" target="6JddjFFhp6mcOWGYSpWZ-47">
          <mxGeometry relative="1" as="geometry" />
        </mxCell>
        <mxCell id="6JddjFFhp6mcOWGYSpWZ-49" value="Report table" style="shape=process;whiteSpace=wrap;html=1;backgroundOutline=1;" vertex="1" parent="1">
          <mxGeometry x="670" y="960" width="120" height="60" as="geometry" />
        </mxCell>
        <mxCell id="6JddjFFhp6mcOWGYSpWZ-50" value="" style="endArrow=classic;html=1;rounded=0;entryX=-0.013;entryY=0.147;entryDx=0;entryDy=0;entryPerimeter=0;" edge="1" parent="1" target="6JddjFFhp6mcOWGYSpWZ-25">
          <mxGeometry width="50" height="50" relative="1" as="geometry">
            <mxPoint x="456.5" y="521" as="sourcePoint" />
            <mxPoint x="653.5" y="520" as="targetPoint" />
            <Array as="points">
              <mxPoint x="476.5" y="521" />
            </Array>
          </mxGeometry>
        </mxCell>
        <mxCell id="6JddjFFhp6mcOWGYSpWZ-51" value="" style="endArrow=classic;html=1;rounded=0;entryX=-0.023;entryY=0.577;entryDx=0;entryDy=0;entryPerimeter=0;exitX=1.003;exitY=0.427;exitDx=0;exitDy=0;exitPerimeter=0;" edge="1" parent="1" source="6JddjFFhp6mcOWGYSpWZ-13">
          <mxGeometry width="50" height="50" relative="1" as="geometry">
            <mxPoint x="473" y="681" as="sourcePoint" />
            <mxPoint x="670" y="680" as="targetPoint" />
            <Array as="points">
              <mxPoint x="493" y="681" />
            </Array>
          </mxGeometry>
        </mxCell>
        <mxCell id="6JddjFFhp6mcOWGYSpWZ-52" value="" style="endArrow=classic;html=1;rounded=0;" edge="1" parent="1">
          <mxGeometry width="50" height="50" relative="1" as="geometry">
            <mxPoint x="130" y="521" as="sourcePoint" />
            <mxPoint x="340" y="521" as="targetPoint" />
          </mxGeometry>
        </mxCell>
        <mxCell id="6JddjFFhp6mcOWGYSpWZ-53" value="" style="endArrow=none;html=1;rounded=0;" edge="1" parent="1">
          <mxGeometry width="50" height="50" relative="1" as="geometry">
            <mxPoint x="130" y="522" as="sourcePoint" />
            <mxPoint x="130" y="200" as="targetPoint" />
            <Array as="points">
              <mxPoint x="130" y="352" />
            </Array>
          </mxGeometry>
        </mxCell>
        <mxCell id="6JddjFFhp6mcOWGYSpWZ-54" value="" style="endArrow=none;html=1;rounded=0;" edge="1" parent="1">
          <mxGeometry width="50" height="50" relative="1" as="geometry">
            <mxPoint x="110" y="670" as="sourcePoint" />
            <mxPoint x="110" y="200" as="targetPoint" />
            <Array as="points">
              <mxPoint x="110" y="352" />
            </Array>
          </mxGeometry>
        </mxCell>
        <mxCell id="6JddjFFhp6mcOWGYSpWZ-55" value="" style="endArrow=classic;html=1;rounded=0;" edge="1" parent="1">
          <mxGeometry width="50" height="50" relative="1" as="geometry">
            <mxPoint x="110" y="670" as="sourcePoint" />
            <mxPoint x="340" y="670" as="targetPoint" />
          </mxGeometry>
        </mxCell>
        <mxCell id="6JddjFFhp6mcOWGYSpWZ-56" value="request" style="text;html=1;align=center;verticalAlign=middle;resizable=0;points=[];autosize=1;strokeColor=none;fillColor=none;" vertex="1" parent="1">
          <mxGeometry x="530" y="498" width="60" height="30" as="geometry" />
        </mxCell>
        <mxCell id="6JddjFFhp6mcOWGYSpWZ-57" value="Response" style="text;html=1;align=center;verticalAlign=middle;resizable=0;points=[];autosize=1;strokeColor=none;fillColor=none;" vertex="1" parent="1">
          <mxGeometry x="520" y="538" width="80" height="30" as="geometry" />
        </mxCell>
        <mxCell id="6JddjFFhp6mcOWGYSpWZ-58" value="response" style="text;html=1;align=center;verticalAlign=middle;resizable=0;points=[];autosize=1;strokeColor=none;fillColor=none;" vertex="1" parent="1">
          <mxGeometry x="235" y="218" width="70" height="30" as="geometry" />
        </mxCell>
        <mxCell id="6JddjFFhp6mcOWGYSpWZ-59" value="request" style="text;html=1;align=center;verticalAlign=middle;resizable=0;points=[];autosize=1;strokeColor=none;fillColor=none;" vertex="1" parent="1">
          <mxGeometry x="230" y="248" width="60" height="30" as="geometry" />
        </mxCell>
        <mxCell id="6JddjFFhp6mcOWGYSpWZ-60" value="response" style="text;html=1;align=center;verticalAlign=middle;resizable=0;points=[];autosize=1;strokeColor=none;fillColor=none;" vertex="1" parent="1">
          <mxGeometry x="205" y="378" width="70" height="30" as="geometry" />
        </mxCell>
        <mxCell id="6JddjFFhp6mcOWGYSpWZ-61" value="request" style="text;html=1;align=center;verticalAlign=middle;resizable=0;points=[];autosize=1;strokeColor=none;fillColor=none;" vertex="1" parent="1">
          <mxGeometry x="210" y="408" width="60" height="30" as="geometry" />
        </mxCell>
        <mxCell id="6JddjFFhp6mcOWGYSpWZ-62" value="request" style="text;html=1;align=center;verticalAlign=middle;resizable=0;points=[];autosize=1;strokeColor=none;fillColor=none;" vertex="1" parent="1">
          <mxGeometry x="190" y="498" width="60" height="30" as="geometry" />
        </mxCell>
        <mxCell id="6JddjFFhp6mcOWGYSpWZ-63" value="response" style="text;html=1;align=center;verticalAlign=middle;resizable=0;points=[];autosize=1;strokeColor=none;fillColor=none;" vertex="1" parent="1">
          <mxGeometry x="185" y="548" width="70" height="30" as="geometry" />
        </mxCell>
        <mxCell id="6JddjFFhp6mcOWGYSpWZ-64" value="request" style="text;html=1;align=center;verticalAlign=middle;resizable=0;points=[];autosize=1;strokeColor=none;fillColor=none;" vertex="1" parent="1">
          <mxGeometry x="190" y="638" width="60" height="30" as="geometry" />
        </mxCell>
        <mxCell id="6JddjFFhp6mcOWGYSpWZ-65" value="response" style="text;html=1;align=center;verticalAlign=middle;resizable=0;points=[];autosize=1;strokeColor=none;fillColor=none;" vertex="1" parent="1">
          <mxGeometry x="175" y="688" width="70" height="30" as="geometry" />
        </mxCell>
        <mxCell id="6JddjFFhp6mcOWGYSpWZ-66" value="request" style="text;html=1;align=center;verticalAlign=middle;resizable=0;points=[];autosize=1;strokeColor=none;fillColor=none;" vertex="1" parent="1">
          <mxGeometry x="510" y="648" width="60" height="30" as="geometry" />
        </mxCell>
        <mxCell id="6JddjFFhp6mcOWGYSpWZ-67" value="response" style="text;html=1;align=center;verticalAlign=middle;resizable=0;points=[];autosize=1;strokeColor=none;fillColor=none;" vertex="1" parent="1">
          <mxGeometry x="505" y="688" width="70" height="30" as="geometry" />
        </mxCell>
        <mxCell id="6JddjFFhp6mcOWGYSpWZ-68" value="response" style="text;html=1;align=center;verticalAlign=middle;resizable=0;points=[];autosize=1;strokeColor=none;fillColor=none;" vertex="1" parent="1">
          <mxGeometry x="175" y="778" width="70" height="30" as="geometry" />
        </mxCell>
        <mxCell id="6JddjFFhp6mcOWGYSpWZ-69" value="request" style="text;html=1;align=center;verticalAlign=middle;resizable=0;points=[];autosize=1;strokeColor=none;fillColor=none;" vertex="1" parent="1">
          <mxGeometry x="170" y="840" width="60" height="30" as="geometry" />
        </mxCell>
        <mxCell id="6JddjFFhp6mcOWGYSpWZ-70" value="response" style="text;html=1;align=center;verticalAlign=middle;resizable=0;points=[];autosize=1;strokeColor=none;fillColor=none;" vertex="1" parent="1">
          <mxGeometry x="515" y="798" width="70" height="30" as="geometry" />
        </mxCell>
        <mxCell id="6JddjFFhp6mcOWGYSpWZ-71" value="request" style="text;html=1;align=center;verticalAlign=middle;resizable=0;points=[];autosize=1;strokeColor=none;fillColor=none;" vertex="1" parent="1">
          <mxGeometry x="520" y="838" width="60" height="30" as="geometry" />
        </mxCell>
        <mxCell id="6JddjFFhp6mcOWGYSpWZ-72" value="&lt;span style=&quot;color: rgb(0, 0, 0); font-family: Helvetica; font-size: 12px; font-style: normal; font-variant-ligatures: normal; font-variant-caps: normal; font-weight: 400; letter-spacing: normal; orphans: 2; text-align: center; text-indent: 0px; text-transform: none; widows: 2; word-spacing: 0px; -webkit-text-stroke-width: 0px; background-color: rgb(251, 251, 251); text-decoration-thickness: initial; text-decoration-style: initial; text-decoration-color: initial; float: none; display: inline !important;&quot;&gt;request&lt;/span&gt;" style="text;whiteSpace=wrap;html=1;" vertex="1" parent="1">
          <mxGeometry x="160" y="1000" width="70" height="40" as="geometry" />
        </mxCell>
        <mxCell id="6JddjFFhp6mcOWGYSpWZ-73" value="&lt;span style=&quot;color: rgb(0, 0, 0); font-family: Helvetica; font-size: 12px; font-style: normal; font-variant-ligatures: normal; font-variant-caps: normal; font-weight: 400; letter-spacing: normal; orphans: 2; text-align: center; text-indent: 0px; text-transform: none; widows: 2; word-spacing: 0px; -webkit-text-stroke-width: 0px; background-color: rgb(251, 251, 251); text-decoration-thickness: initial; text-decoration-style: initial; text-decoration-color: initial; float: none; display: inline !important;&quot;&gt;request&lt;/span&gt;" style="text;whiteSpace=wrap;html=1;" vertex="1" parent="1">
          <mxGeometry x="530" y="1000" width="70" height="40" as="geometry" />
        </mxCell>
        <mxCell id="6JddjFFhp6mcOWGYSpWZ-74" value="response" style="text;html=1;align=center;verticalAlign=middle;resizable=0;points=[];autosize=1;strokeColor=none;fillColor=none;" vertex="1" parent="1">
          <mxGeometry x="535" y="948" width="70" height="30" as="geometry" />
        </mxCell>
        <mxCell id="6JddjFFhp6mcOWGYSpWZ-75" value="&lt;span style=&quot;color: rgb(0, 0, 0); font-family: Helvetica; font-size: 12px; font-style: normal; font-variant-ligatures: normal; font-variant-caps: normal; font-weight: 400; letter-spacing: normal; orphans: 2; text-align: center; text-indent: 0px; text-transform: none; widows: 2; word-spacing: 0px; -webkit-text-stroke-width: 0px; background-color: rgb(251, 251, 251); text-decoration-thickness: initial; text-decoration-style: initial; text-decoration-color: initial; float: none; display: inline !important;&quot;&gt;response&lt;/span&gt;" style="text;whiteSpace=wrap;html=1;" vertex="1" parent="1">
          <mxGeometry x="165" y="920" width="80" height="40" as="geometry" />
        </mxCell>
        <mxCell id="2r-HNGeFes6sJzcAlGBp-1" value="response" style="text;html=1;align=center;verticalAlign=middle;resizable=0;points=[];autosize=1;strokeColor=none;fillColor=none;" vertex="1" parent="1">
          <mxGeometry x="245" y="128" width="70" height="30" as="geometry" />
        </mxCell>
      </root>
    </mxGraphModel>
  </diagram>
</mxfile>
